HIERARCHY
ROOT Hips
{
  OFFSET 263.056 91.6644 -274.608
  CHANNELS 6 Xposition Yposition Zposition Zrotation Xrotation Yrotation
  JOINT LeftUpLeg
  {
    OFFSET 8.64259 1.95398 -2.38835
    CHANNELS 3 Zrotation Xrotation Yrotation
    JOINT LeftLeg
    {
      OFFSET 43.7702 0 0
      CHANNELS 3 Zrotation Xrotation Yrotation
      JOINT LeftFoot
      {
        OFFSET 40.6238 0 0
        CHANNELS 3 Zrotation Xrotation Yrotation
        JOINT LeftToeBase
        {
          OFFSET 12.7242 0 0
          CHANNELS 3 Zrotation Xrotation Yrotation
          End Site
          {
            OFFSET 0 0 0
          }
        }
      }
    }
  }
  JOINT RightUpLeg
  {
    OFFSET -8.2249 1.95398 -2.59336
    CHANNELS 3 Zrotation Xrotation Yrotation
    JOINT RightLeg
    {
      OFFSET 43.5653 0 0
      CHANNELS 3 Zrotation Xrotation Yrotation
      JOINT RightFoot
      {
        OFFSET 40.6238 0 0
        CHANNELS 3 Zrotation Xrotation Yrotation
        JOINT RightToeBase
        {
          OFFSET 12.7242 0 0
          CHANNELS 3 Zrotation Xrotation Yrotation
          End Site
          {
            OFFSET 0 0 0
          }
        }
      }
    }
  }
  JOINT Spine
  {
    OFFSET 0.165834 0.87714 6.61349
    CHANNELS 3 Zrotation Xrotation Yrotation
    JOINT Spine1
    {
      OFFSET 7.38963 1.71661e-005 0
      CHANNELS 3 Zrotation Xrotation Yrotation
      JOINT Spine2
      {
        OFFSET 11.9445 1.14441e-005 0
        CHANNELS 3 Zrotation Xrotation Yrotation
        JOINT Spine3
        {
          OFFSET 14.7254 4.19617e-005 0
          CHANNELS 3 Zrotation Xrotation Yrotation
          JOINT Spine4
          {
            OFFSET 10.9679 0 0
            CHANNELS 3 Zrotation Xrotation Yrotation
            JOINT RightShoulder
            {
              OFFSET 2.46616 -1.6653 3.69651
              CHANNELS 3 Zrotation Xrotation Yrotation
              JOINT RightArm
              {
                OFFSET 13.0012 0 0
                CHANNELS 3 Zrotation Xrotation Yrotation
                JOINT RightForeArm
                {
                  OFFSET 28.7848 1.52588e-005 0
                  CHANNELS 3 Zrotation Xrotation Yrotation
                  JOINT RightHand
                  {
                    OFFSET 26.5688 1.52588e-005 0
                    CHANNELS 3 Zrotation Xrotation Yrotation
                    End Site
                    {
                      OFFSET 0 0 0
                    }
                  }
                }
              }
            }
            JOINT LeftShoulder
            {
              OFFSET 2.38034 -1.29275 -3.7523
              CHANNELS 3 Zrotation Xrotation Yrotation
              JOINT LeftArm
              {
                OFFSET 16.3182 6.10352e-005 0
                CHANNELS 3 Zrotation Xrotation Yrotation
                JOINT LeftForeArm
                {
                  OFFSET 27.0901 0 0
                  CHANNELS 3 Zrotation Xrotation Yrotation
                  JOINT LeftHand
                  {
                    OFFSET 24.5451 1.52588e-005 0
                    CHANNELS 3 Zrotation Xrotation Yrotation
                    End Site
                    {
                      OFFSET 0 0 0
                    }
                  }
                }
              }
            }
            JOINT Neck
            {
              OFFSET 5.0226 -0.0266342 0
              CHANNELS 3 Zrotation Xrotation Yrotation
              JOINT Head
              {
                OFFSET 6.69364 2.86102e-005 0
                CHANNELS 3 Zrotation Xrotation Yrotation
                End Site
                {
                  OFFSET 0 0 0
                }
              }
            }
          }
        }
      }
    }
  }
}
MOTION
Frames:	17
Frame Time:	0.0416667
-126.774 83.881 -160.636 93.336 -37.1763 92.5749 98.0288 18.0211 48.7812 -154.478 41.3884 99.6665 55.8295 -4.48605 22.1108 40.2394 -17.4248 110.661 179.73 54.1748 92.3652 -51.7678 5.11216 1.48474 61.0275 2.97223 2.13856 35.4364 0.383904 5.90124 -1.21748 8.1696 -89.6627 10.5453 -2.27001 0.872847 -1.12397 -2.2294 0.971935 -23.675 -2.42733 0.149891 -3.66239 -2.42734 0.149881 74.532 -53.7997 -122.115 27.2758 -0.612232 49.5706 -0.528811 -6.41973 -19.3394 -3.9565 -0.351814 4.55887 -96.5747 -35.7743 63.726 -12.9623 -16.9085 -11.9976 13.9986 -5.51049 -112.3 26.2702 3.92376 11.2822 16.3396 1.1366 -4.74996 -1.20196 2.49669 2.74751 
-116.678 75.6288 -152.128 90.2741 -34.6538 89.9967 64.5469 48.1443 51.0497 -128.813 64.7231 52.6998 53.0578 -4.80862 28.7792 42.0103 -17.947 117.994 -179.208 61.591 88.5038 -49.3004 3.09914 1.36001 53.5354 4.97693 3.87334 38.5606 0.680668 3.17307 -1.33709 7.94473 -89.8146 10.9903 -2.57574 0.613783 -0.678328 -2.54623 0.726612 -23.2337 -2.64107 -0.189251 -3.22104 -2.64107 -0.18926 75.4596 -54.7132 -120.434 26.5317 -1.57083 39.0395 0.00597849 -5.15527 -21.5277 -5.68538 -0.496987 4.80844 -99.1068 -37.5244 60.262 -17.4754 -5.92659 -12.9963 13.9593 1.51635 -92.8995 24.4235 3.17807 9.28367 20.0613 0.520219 -3.89552 -3.32428 1.71624 2.34243 
-105.254 71.3632 -142.932 86.1397 -35.8939 90.9309 100.83 37.7537 43.9927 -177.568 77.2673 90.7957 101.318 -14.2178 56.2026 34.7113 8.48301 73.0779 165.032 68.8653 101.019 -71.1966 0.97852 8.35536 62.5383 -2.53297 -1.16893 26.2963 -0.809781 7.72354 -1.28781 7.45262 -90.708 11.9562 -2.89422 -1.09895 0.288153 -2.93978 -0.970421 -22.2628 -2.43014 -1.9183 -2.25015 -2.43015 -1.9183 73.5233 -56.5658 -122.276 19.316 -7.76903 25.4389 3.18969 -7.00995 -26.0882 -6.98769 -0.503313 2.83184 -102.236 -39.7367 56.2639 -20.2848 7.67986 -11.5602 7.31688 2.54159 -57.7942 23.3783 1.95859 4.57719 22.599 3.41034 0.983829 -5.52457 2.91533 1.87276 
-91.0757 72.5421 -132.729 89.8421 -42.9702 93.7328 133.792 33.4983 58.4577 77.2829 65.0408 173.313 129.677 -1.49196 71.4669 33.8953 4.72037 45.0736 169.183 59.4215 107.604 -84.6441 5.30436 0.543391 79.1145 -4.62607 -2.02461 30.2703 -0.294939 7.60225 -0.458103 7.93485 -90.7789 10.9948 -1.2729 -1.43002 -0.676319 -1.3346 -1.37262 -23.207 -0.784366 -1.74639 -3.1943 -0.784388 -1.7464 72.1627 -53.5479 -125.509 17.3867 -11.1435 8.60828 2.68527 -6.54291 -37.5185 -13.9884 -0.968184 2.95983 -107.919 -41.9829 48.7026 -20.949 13.2355 -6.1119 0.691719 7.74678 -30.9445 17.0801 1.68898 6.03022 24.5735 4.3051 3.78736 -5.10145 2.81133 -0.295993 
-75.3029 84.553 -118.439 88.8858 -44.7012 89.2908 140.028 43.1045 76.9255 79.2322 47.3986 169.091 100.265 -8.60555 64.0153 33.756 3.36449 55.749 178.555 34.5251 98.482 -68.7139 4.78954 -2.63338 81.7611 -3.20465 -1.40659 39.6109 1.02671 8.26524 0.367431 7.89178 -90.1796 11.1005 0.648017 -0.419609 -0.570235 0.628922 -0.447735 -23.1076 0.744183 -0.205449 -3.09494 0.74419 -0.205447 74.3362 -51.6113 -123.388 15.1968 -11.0774 -2.81219 -3.48971 -7.37729 -56.7554 -18.6896 -0.831702 0.311442 -107.953 -42.956 49.1825 -28.0935 11.7383 4.58965 0.935171 15.8653 -21.7855 13.7344 1.90612 9.60944 21.4412 0.879881 1.8201 -3.40868 0.238592 0.129955 
-62.4498 98.6463 -107.036 91.7879 -46.6026 86.0374 150.931 49.1637 88.2764 96.9235 35.0743 167.83 64.0708 -26.4681 51.3917 33.4591 -2.98034 70.8137 179.996 13.1661 90.363 -44.6041 0.505271 -5.37306 55.4697 2.76162 2.36419 26.4371 -1.58363 14.4585 0.87544 7.91432 -89.4223 11.0396 2.01066 0.957001 -0.630086 2.05083 0.867549 -23.1714 1.63011 1.51711 -3.15878 1.63011 1.51711 77.0571 -48.9597 -120.676 13.7412 -10.4468 -9.02262 -12.7934 -5.92823 -72.7709 -20.1659 -1.26366 2.56006 -105.348 -42.8036 52.9888 -33.4107 10.7107 18.2108 -0.405663 17.8396 -17.3181 9.5945 1.20922 7.99073 12.6283 -1.21352 2.02728 0.0636984 -1.72666 -1.5439 
-49.9135 105.84 -97.6134 91.1261 -50.2642 85.1733 152.121 50.9205 94.3235 114.316 37.4794 167.109 54.4165 -26.9467 46.1089 33.3266 -3.76539 70.21 179.573 8.80457 90.2214 -34.4022 -9.69664 -5.42754 49.5074 4.63402 3.93648 17.2717 -0.478451 -1.43925 1.33886 7.80716 -89.4054 11.2499 2.9413 0.893189 -0.417979 2.97774 0.762755 -22.9718 2.53683 1.73629 -2.95911 2.53682 1.73629 81.041 -43.8974 -116.838 14.9285 -9.14744 -13.6011 -18.7493 0.796723 -86.7764 -16.0122 -1.27657 4.45272 -103.415 -41.3837 55.2268 -39.2764 7.86984 30.624 -1.5754 13.5714 -14.4505 5.42543 0.581567 5.46726 11.6821 -1.14307 5.73006 -1.54235 -2.54635 -3.70187 
-37.4189 107.615 -87.7486 90.2855 -53.1245 84.483 150.116 46.7662 96.1126 136.516 44.0616 161.608 52.0371 -27.0341 41.7869 33.5086 -2.74356 70.9964 178.451 9.70607 90.1096 -25.3744 -1.20221 -1.54747 52.0113 4.31043 3.55541 23.622 -0.880964 4.80787 1.66064 7.74505 -89.3626 11.3733 3.60164 0.907178 -0.292857 3.63808 0.74759 -22.8582 3.16238 1.94858 -2.84554 3.16238 1.94857 82.3516 -42.404 -115.38 13.5956 -6.73068 -16.1225 -20.7694 6.81623 -97.0345 -15.819 -1.2629 4.46463 -100.733 -37.9511 57.7961 -44.733 4.18405 40.0786 -2.24963 8.01995 -11.6865 2.73155 0.298692 4.32234 12.9581 -1.29183 5.84555 -3.15838 -2.73168 -4.39805 
-24.6139 104.72 -77.5607 90.7653 -53.5458 83.8229 143.326 42.017 97.06 160.518 49.7936 151.679 48.7716 -26.8573 35.5897 33.5314 -3.04782 71.6737 177.471 10.4354 89.5224 -24.4137 0.646767 0.0827988 55.6423 4.34875 3.27617 28.6663 -0.151365 1.80944 1.66581 7.78455 -89.2073 11.2875 3.68414 1.2131 -0.378623 3.73394 1.04958 -22.9418 3.14918 2.26502 -2.92917 3.14916 2.26501 82.7012 -42.0837 -114.947 14.6642 -2.4005 -17.1189 -22.8026 8.57749 -106.688 -16.3494 -1.47094 5.81757 -99.5695 -34.85 58.2128 -47.0196 1.09613 47.1454 -2.21824 3.96348 -9.22111 -0.604158 0.0218862 2.77718 13.7884 -1.12572 6.16503 -3.85544 -2.66632 -4.44095 
-12.0094 96.3042 -67.8774 95.8423 -54.5373 87.5211 135.059 38.2645 99.8949 173.643 54.0703 142.801 46.7428 -26.5812 31.0142 33.276 -4.32491 70.3909 177.752 9.33428 91.8154 -39.4805 1.11871 -2.27363 69.4323 0.173978 0.357644 36.9441 0.63972 8.71949 1.77955 8.07077 -89.26 10.7162 3.88492 1.11471 -0.949249 3.93023 0.942404 -23.5178 3.37018 2.23178 -3.50514 3.37019 2.23178 81.668 -42.9517 -116.247 15.0852 0.996812 -14.9452 -25.4687 11.5436 -111.804 -14.4866 -1.39504 6.54636 -100.207 -35.2536 57.3474 -44.5996 0.48542 51.3069 -2.23233 1.89579 -6.31369 -2.21854 -0.119235 3.18164 13.1606 -0.752735 7.49261 -1.96841 -2.68233 -4.64118 
1.19413 88.2016 -57.7344 98.8849 -53.6521 90.4776 128.592 35.6245 102.135 177.696 58.5314 138.52 47.0199 -26.8386 28.3919 32.637 -10.5446 70.8832 177.138 -1.38986 92.0446 -47.3959 8.94811 -6.18019 89.7177 -3.75699 -3.00282 46.8247 2.3132 12.4414 1.50747 8.343 -89.3291 10.174 3.30978 1.05207 -1.49305 3.3529 0.905228 -24.0513 2.84054 1.99874 -4.03863 2.84054 1.99874 79.6958 -45.3717 -118.298 15.0045 -1.36744 -13.9047 -23.3784 8.2284 -107.483 -16.7091 -1.26337 4.07465 -99.9427 -40.0802 60.0662 -40.4929 1.1973 45.3214 -1.40838 -0.20295 -2.16056 10.3469 1.36543 8.63768 17.5811 0.41581 6.77214 -2.84632 -1.58129 -3.00881 
16.3684 84.7285 -46.5833 88.468 -53.2947 85.0909 130.848 39.7927 103.045 170.224 63.2064 138.553 52.1114 -26.4335 31.7001 32.3862 -9.68509 68.5859 176.153 -5.47874 88.2734 -49.3832 -0.496813 -6.26335 77.7503 -1.18627 -0.19989 58.1506 3.73611 10.3455 1.7483 7.57136 -89.489 11.7277 3.71707 0.62145 0.0620361 3.74082 0.457009 -22.5087 3.35829 1.71102 -2.49607 3.3583 1.71102 77.4941 -48.1055 -120.42 19.1183 -4.26776 -2.46212 -16.0459 0.575762 -90.7816 -16.6366 -0.93701 1.55041 -100.337 -43.7079 61.0275 -36.254 1.91628 30.074 0.0347414 -3.48582 -8.76927 18.8329 2.91922 10.2131 21.3345 -0.658039 4.9397 -5.75848 -2.17181 -2.58624 
29.8095 81.6012 -35.8931 86.6067 -50.7356 84.1031 142.888 47.4421 93.9435 137.885 67.1414 152.018 63.2278 -21.9173 44.4022 34.5215 6.43349 60.4265 176.942 0.535783 90.2149 -72.1741 -2.57672 -6.46963 48.5622 5.9644 5.0863 35.3214 1.50657 12.2425 1.32736 7.33642 -89.2833 12.1874 2.97746 1.09895 0.519284 3.02294 0.96675 -22.0309 2.50962 1.94327 -2.01827 2.5096 1.94327 75.9621 -50.8222 -121.428 23.161 -8.73934 6.01739 -0.377113 -0.968886 -59.1614 -13.6856 -0.545229 -0.613201 -103.931 -44.5985 55.9904 -32.634 2.07835 15.4847 -0.772961 -10.9932 -21.3508 5.46523 0.0627879 0.249072 24.268 -1.41409 0.480111 -7.61019 -1.47292 -1.39438 
41.4538 82.1066 -26.9844 87.5025 -45.3606 87.7174 146.354 42.3132 86.1681 129.073 66.0257 154.305 64.8844 -19.3137 48.2475 35.5438 11.5015 61.1351 177.472 24.8989 88.6642 -108.864 -0.987565 -4.73516 37.4876 7.33625 7.58038 20.5478 -0.951687 2.43547 0.351162 7.43422 -89.5293 11.9993 0.920186 0.840797 0.328459 0.956293 0.799477 -22.2059 0.624961 1.07847 -2.1932 0.624976 1.07847 73.6797 -52.5753 -123.864 25.8665 -9.95853 15.1237 3.98836 -4.5736 -33.9967 -11.1058 -0.641293 1.42965 -105.219 -41.1381 52.3232 -26.1702 4.67059 -1.54085 2.05599 0.0106828 -38.9316 22.1292 2.1824 5.46958 23.2548 -0.833243 -2.06904 -7.66174 -0.0844577 -0.476163 
53.4295 91.1979 -18.8464 89.4804 -44.9618 92.8383 150.39 21.7064 78.1427 155.35 58.7345 145.364 55.4023 -24.7389 39.0392 34.6232 7.05826 65.3444 170.74 49.0055 96.3402 -120.253 8.69215 -4.33541 39.8821 3.66487 3.85399 18.1193 -0.964367 1.91973 -0.274798 7.60036 -90.1171 11.6728 -0.601483 -0.170602 0.00198312 -0.608409 -0.14397 -22.534 -0.522395 -0.343488 -2.52134 -0.522402 -0.343491 74.3178 -53.6356 -122.488 26.4377 -7.59466 27.8395 -1.93298 -17.883 -24.9222 -2.37785 -0.349061 6.33513 -102.033 -40.1371 56.777 -22.4582 -3.78186 -6.20447 13.869 2.92707 -68.0963 23.6157 2.74065 7.8546 21.0079 2.51708 -0.278482 -7.39193 2.50904 0.243219 
65.0017 101.166 -9.43002 90.0719 -41.8173 93.8948 155.344 6.18049 79.5995 164.554 46.7905 156.488 50.8987 -30.5281 27.7064 31.4512 -8.06962 59.7775 161.777 61.3639 105.647 -115.054 5.62163 -3.94958 46.343 2.04589 2.0377 30.1601 -0.177503 5.00849 -0.830525 7.69549 -90.1754 11.4829 -1.73427 -0.171463 -0.186895 -1.74015 -0.0949511 -22.7303 -1.60253 -0.684885 -2.71766 -1.60253 -0.684891 74.6474 -53.2641 -122.197 28.1876 -3.4559 41.5119 -3.46775 -17.3784 -22.6265 4.87573 0.261567 6.35695 -98.4224 -37.5213 61.3936 -18.4438 -9.28884 -6.87633 17.6039 0.12055 -91.2132 21.7561 2.91695 9.62756 17.003 3.21576 -1.30638 -5.05185 3.47932 0.598877 
76.9132 106.388 0.777447 90.7744 -39.4797 93.0512 156.694 3.073 82.1308 169.27 42.3829 163.14 48.9273 -31.8106 25.469 30.6598 -10.161 57.2776 162.48 62.0906 106.211 -107.381 5.09163 -3.28316 54.1981 0.214558 0.378492 37.9046 0.651203 5.63817 -1.09931 7.8498 -89.9769 11.1782 -2.17728 0.258775 -0.49093 -2.16377 0.354385 -23.0406 -2.15434 -0.407868 -3.02793 -2.15435 -0.407876 77.978 -49.9381 -118.89 31.9311 -0.166953 52.3338 -4.13343 -12.012 -21.3336 9.18311 0.474957 3.77552 -96.7486 -34.9716 63.0745 -14.5647 -14.8657 -7.83052 16.554 -3.86875 -104.024 22.4386 3.13587 10.2268 13.5535 2.96178 -2.65105 -2.6942 3.58121 2.46357 
